<?xml version="1.0" encoding="UTF-8"?>
<!DOCTYPE svg PUBLIC "-//W3C//DTD SVG 1.1//EN" "http://www.w3.org/Graphics/SVG/1.1/DTD/svg11.dtd">
<svg xmlns="http://www.w3.org/2000/svg" version="1.1" width="1524px" height="1084px" style="shape-rendering:geometricPrecision; text-rendering:geometricPrecision; image-rendering:optimizeQuality; fill-rule:evenodd; clip-rule:evenodd" xmlns:xlink="http://www.w3.org/1999/xlink">
<g><path style="opacity:0.997" fill="#333333" d="M 10.5,-0.5 C 511.167,-0.5 1011.83,-0.5 1512.5,-0.5C 1517.04,1.3676 1520.71,4.3676 1523.5,8.5C 1523.5,306.833 1523.5,605.167 1523.5,903.5C 1521.69,907.479 1518.69,910.312 1514.5,912C 1324.16,911.834 1134.16,912.668 944.5,914.5C 943.094,914.027 942.427,913.027 942.5,911.5C 1132.5,911.667 1322.5,911.5 1512.5,911C 1517.43,909.073 1520.59,905.573 1522,900.5C 1522.67,604.167 1522.67,307.833 1522,11.5C 1520.43,7.17343 1517.59,4.00677 1513.5,2C 1262.83,1.83333 1012.17,1.66667 761.5,1.5C 510.833,1.66667 260.167,1.83333 9.5,2C 5.18317,4.31513 2.34983,7.81513 1,12.5C 0.333333,308.5 0.333333,604.5 1,900.5C 2.40561,905.573 5.57227,909.073 10.5,911C 201.166,911.5 391.833,911.667 582.5,911.5C 582.5,912.833 581.833,913.5 580.5,913.5C 390,912.667 199.334,912.167 8.5,912C 4.31481,910.312 1.31481,907.479 -0.5,903.5C -0.5,605.167 -0.5,306.833 -0.5,8.5C 2.29348,4.3676 5.96015,1.3676 10.5,-0.5 Z M 35.5,34.5 C 519.833,34.5 1004.17,34.5 1488.5,34.5C 1488.5,315.5 1488.5,596.5 1488.5,877.5C 1004.17,877.5 519.833,877.5 35.5,877.5C 35.5,596.5 35.5,315.5 35.5,34.5 Z"/></g>
<g><path style="opacity:1" fill="#272727" d="M 942.5,911.5 C 822.5,911.5 702.5,911.5 582.5,911.5C 391.833,911.667 201.166,911.5 10.5,911C 5.57227,909.073 2.40561,905.573 1,900.5C 0.333333,604.5 0.333333,308.5 1,12.5C 2.34983,7.81513 5.18317,4.31513 9.5,2C 260.167,1.83333 510.833,1.66667 761.5,1.5C 1012.17,1.66667 1262.83,1.83333 1513.5,2C 1517.59,4.00677 1520.43,7.17343 1522,11.5C 1522.67,307.833 1522.67,604.167 1522,900.5C 1520.59,905.573 1517.43,909.073 1512.5,911C 1322.5,911.5 1132.5,911.667 942.5,911.5 Z M 35.5,34.5 C 35.5,315.5 35.5,596.5 35.5,877.5C 519.833,877.5 1004.17,877.5 1488.5,877.5C 1488.5,596.5 1488.5,315.5 1488.5,34.5C 1004.17,34.5 519.833,34.5 35.5,34.5 Z"/></g>
<g><path style="opacity:1" fill="#222222" d="M 11.5,2.5 C 512.555,2.00135 1013.55,2.50135 1514.5,4C 1517.87,6.36486 1520.04,9.53152 1521,13.5C 1521.67,308.833 1521.67,604.167 1521,899.5C 1519.59,904.573 1516.43,908.073 1511.5,910C 1011.5,910.667 511.5,910.667 11.5,910C 5.80795,907.794 2.64128,903.627 2,897.5C 1.33333,603.5 1.33333,309.5 2,15.5C 2.75781,9.28619 5.92448,4.95285 11.5,2.5 Z M 35.5,34.5 C 35.5,315.5 35.5,596.5 35.5,877.5C 519.833,877.5 1004.17,877.5 1488.5,877.5C 1488.5,596.5 1488.5,315.5 1488.5,34.5C 1004.17,34.5 519.833,34.5 35.5,34.5 Z"/></g>
<g><path style="opacity:1" fill="#1b1b1b" d="M 12.5,3.5 C 511.833,3.33333 1011.17,3.5 1510.5,4C 1515.43,5.92678 1518.59,9.42678 1520,14.5C 1520.67,309.167 1520.67,603.833 1520,898.5C 1518.59,903.573 1515.43,907.073 1510.5,909C 1010.42,909.999 510.421,909.666 10.5,908C 7.27158,906.437 5.10491,903.937 4,900.5C 3.33333,604.5 3.33333,308.5 4,12.5C 5.68784,8.31481 8.52117,5.31481 12.5,3.5 Z M 35.5,34.5 C 35.5,315.5 35.5,596.5 35.5,877.5C 519.833,877.5 1004.17,877.5 1488.5,877.5C 1488.5,596.5 1488.5,315.5 1488.5,34.5C 1004.17,34.5 519.833,34.5 35.5,34.5 Z"/></g>
<g><path style="opacity:1" fill="#151515" d="M 15.5,4.5 C 512.833,4.33333 1010.17,4.5 1507.5,5C 1512.6,6.43286 1516.1,9.59953 1518,14.5C 1519,310.246 1518.67,605.913 1517,901.5C 1514.74,904.431 1511.9,906.597 1508.5,908C 1010.83,908.667 513.167,908.667 15.5,908C 9.59007,906.421 6.09007,902.588 5,896.5C 4.33333,603.167 4.33333,309.833 5,16.5C 6.27966,10.3964 9.77966,6.39636 15.5,4.5 Z M 35.5,34.5 C 35.5,315.5 35.5,596.5 35.5,877.5C 519.833,877.5 1004.17,877.5 1488.5,877.5C 1488.5,596.5 1488.5,315.5 1488.5,34.5C 1004.17,34.5 519.833,34.5 35.5,34.5 Z"/></g>
<g><path style="opacity:1" fill="#0f0f0f" d="M 1509.5,905.5 C 1509.08,906.222 1508.42,906.722 1507.5,907C 1259,907.167 1010.5,907.333 762,907.5C 512.445,907.665 262.945,907.165 13.5,906C 10.2716,904.437 8.10491,901.937 7,898.5C 6.0016,603.087 6.33493,307.754 8,12.5C 10.3649,9.13094 13.5315,6.96428 17.5,6C 513.833,5.33333 1010.17,5.33333 1506.5,6C 1511.57,7.40561 1515.07,10.5723 1517,15.5C 1517.67,309.5 1517.67,603.5 1517,897.5C 1515.68,901.319 1513.18,903.985 1509.5,905.5 Z M 35.5,34.5 C 35.5,315.5 35.5,596.5 35.5,877.5C 519.833,877.5 1004.17,877.5 1488.5,877.5C 1488.5,596.5 1488.5,315.5 1488.5,34.5C 1004.17,34.5 519.833,34.5 35.5,34.5 Z"/></g>
<g><path style="opacity:1" fill="#090909" d="M 1509.5,905.5 C 1260.36,906.165 1011.19,906.499 762,906.5C 512.779,906.665 263.612,906.165 14.5,905C 11.2553,903.019 9.08861,900.186 8,896.5C 7.33333,603.167 7.33333,309.833 8,16.5C 9.92678,11.5723 13.4268,8.40561 18.5,7C 514.167,6.33333 1009.83,6.33333 1505.5,7C 1510.57,8.40561 1514.07,11.5723 1516,16.5C 1516.67,309.833 1516.67,603.167 1516,896.5C 1514.42,899.916 1512.25,902.916 1509.5,905.5 Z M 35.5,34.5 C 35.5,315.5 35.5,596.5 35.5,877.5C 519.833,877.5 1004.17,877.5 1488.5,877.5C 1488.5,596.5 1488.5,315.5 1488.5,34.5C 1004.17,34.5 519.833,34.5 35.5,34.5 Z"/></g>
<g><path style="opacity:0.986" fill="#020202" d="M 20.5,7.5 C 514.833,7.33333 1009.17,7.5 1503.5,8C 1509.55,9.05292 1513.39,12.5529 1515,18.5C 1515.67,310.833 1515.67,603.167 1515,895.5C 1513.14,900.026 1509.97,903.192 1505.5,905C 1008.78,905.999 512.112,905.665 15.5,904C 12.5665,901.736 10.3999,898.902 9,895.5C 8.33333,603.167 8.33333,310.833 9,18.5C 10.7889,12.5412 14.6223,8.87454 20.5,7.5 Z M 35.5,34.5 C 35.5,315.5 35.5,596.5 35.5,877.5C 519.833,877.5 1004.17,877.5 1488.5,877.5C 1488.5,596.5 1488.5,315.5 1488.5,34.5C 1004.17,34.5 519.833,34.5 35.5,34.5 Z"/></g>
<g><path style="opacity:0.996" fill="#2b2c30" d="M 582.5,911.5 C 702.5,911.5 822.5,911.5 942.5,911.5C 942.427,913.027 943.094,914.027 944.5,914.5C 952.117,956.87 959.951,999.203 968,1041.5C 969.651,1044.8 971.318,1048.14 973,1051.5C 976.566,1054.7 980.4,1057.53 984.5,1060C 997.202,1062.39 1009.87,1064.89 1022.5,1067.5C 1024.03,1069.71 1024.7,1072.21 1024.5,1075C 1024.44,1077.23 1024.1,1079.39 1023.5,1081.5C 933.334,1082.17 843.334,1082.83 753.5,1083.5C 690.833,1083.5 628.167,1083.5 565.5,1083.5C 543.67,1082.67 521.67,1082.17 499.5,1082C 498.371,1077.92 498.204,1073.75 499,1069.5C 499.374,1068.58 499.874,1067.75 500.5,1067C 509.5,1065.33 518.5,1063.67 527.5,1062C 531.295,1060.27 534.962,1058.27 538.5,1056C 544.321,1056.35 548.154,1053.85 550,1048.5C 551.378,1046.79 553.045,1045.45 555,1044.5C 562.105,1007.47 569.272,970.473 576.5,933.5C 572.767,927.958 572.601,922.292 576,916.5C 577.129,914.859 578.629,913.859 580.5,913.5C 581.833,913.5 582.5,912.833 582.5,911.5 Z"/></g>
</svg>
