<?xml version="1.0" encoding="UTF-8"?>
<!DOCTYPE svg PUBLIC "-//W3C//DTD SVG 1.1//EN" "http://www.w3.org/Graphics/SVG/1.1/DTD/svg11.dtd">
<svg xmlns="http://www.w3.org/2000/svg" version="1.1" width="1296px" height="978px" style="shape-rendering:geometricPrecision; text-rendering:geometricPrecision; image-rendering:optimizeQuality; fill-rule:evenodd; clip-rule:evenodd" xmlns:xlink="http://www.w3.org/1999/xlink">
<g><path style="opacity:0.997" fill="#060606" d="M 28.5,-0.5 C 439.167,-0.5 849.833,-0.5 1260.5,-0.5C 1276.33,7.79796 1285.83,20.798 1289,38.5C 1289.67,337.167 1289.67,635.833 1289,934.5C 1284.47,956.972 1271.3,971.305 1249.5,977.5C 846.167,977.5 442.833,977.5 39.5,977.5C 18.0526,971.72 4.7193,958.053 -0.5,936.5C -0.5,636.5 -0.5,336.5 -0.5,36.5C 3.5276,19.7993 13.1943,7.46602 28.5,-0.5 Z M 45.5,31.5 C 444.5,31.3333 843.5,31.5 1242.5,32C 1248,33.5 1251.5,37 1253,42.5C 1253.67,338.5 1253.67,634.5 1253,930.5C 1251.57,935.598 1248.4,939.098 1243.5,941C 843.833,941.667 444.167,941.667 44.5,941C 39.9014,939.402 37.0681,936.235 36,931.5C 35.3333,634.833 35.3333,338.167 36,41.5C 38.0223,36.98 41.189,33.6467 45.5,31.5 Z"/></g>
<g><path style="opacity:0.008" fill="#eaeceb" d="M 12.5,2.5 C 13.8333,3.16667 13.8333,3.16667 12.5,2.5 Z"/></g>
<g><path style="opacity:0.29" fill="#e1e3e2" d="M 12.5,3.5 C 11.8333,4.16667 11.8333,4.16667 12.5,3.5 Z"/></g>
<g><path style="opacity:0.29" fill="#e1e3e2" d="M 11.5,4.5 C 10.8333,5.16667 10.8333,5.16667 11.5,4.5 Z"/></g>
<g><path style="opacity:0.29" fill="#e1e3e2" d="M 10.5,5.5 C 9.83333,6.16667 9.83333,6.16667 10.5,5.5 Z"/></g>
<g><path style="opacity:0.29" fill="#e1e3e2" d="M 9.5,6.5 C 8.83333,7.16667 8.83333,7.16667 9.5,6.5 Z"/></g>
<g><path style="opacity:1" fill="#c5c5c6" d="M 8.5,7.5 C 8.57298,9.02694 7.90632,10.0269 6.5,10.5C 6.42702,8.97306 7.09368,7.97306 8.5,7.5 Z"/></g>
<g><path style="opacity:1" fill="#c4c5c4" d="M 6.5,10.5 C 5.83333,11.1667 5.83333,11.1667 6.5,10.5 Z"/></g>
<g><path style="opacity:0.004" fill="#dfe1e1" d="M 5.5,964.5 C 4.83333,963.167 4.83333,963.167 5.5,964.5 Z"/></g>
<g><path style="opacity:0.004" fill="#d9dbdb" d="M 5.5,964.5 C 6.83333,965.167 6.83333,965.167 5.5,964.5 Z"/></g>
<g><path style="opacity:0.004" fill="#e1e3e3" d="M 13.5,973.5 C 12.8333,972.167 12.8333,972.167 13.5,973.5 Z"/></g>
<g><path style="opacity:0.004" fill="#dddfdf" d="M 13.5,973.5 C 14.8333,974.167 14.8333,974.167 13.5,973.5 Z"/></g>
</svg>
