<?xml version="1.0" encoding="UTF-8"?>
<!DOCTYPE svg PUBLIC "-//W3C//DTD SVG 1.1//EN" "http://www.w3.org/Graphics/SVG/1.1/DTD/svg11.dtd">
<svg xmlns="http://www.w3.org/2000/svg" version="1.1" width="1419px" height="2835px" style="shape-rendering:geometricPrecision; text-rendering:geometricPrecision; image-rendering:optimizeQuality; fill-rule:evenodd; clip-rule:evenodd" xmlns:xlink="http://www.w3.org/1999/xlink">
<g><path style="opacity:1" fill="#48604d" d="M 200.5,-0.5 C 535.5,-0.5 870.5,-0.5 1205.5,-0.5C 1216.88,0.652699 1228.21,2.6527 1239.5,5.5C 1241.51,6.92381 1243.85,7.59047 1246.5,7.5C 1248.51,8.92381 1250.85,9.59047 1253.5,9.5C 1269.7,14.1038 1284.7,21.1038 1298.5,30.5C 1300.98,33.2411 1303.98,35.2411 1307.5,36.5C 1312.41,39.0745 1316.74,42.4078 1320.5,46.5C 1322.24,49.2427 1324.57,51.2427 1327.5,52.5C 1328.5,52.8333 1329.17,53.5 1329.5,54.5C 1331.83,57.5 1334.5,60.1667 1337.5,62.5C 1368.59,94.3838 1386.76,133.05 1392,178.5C 1394.48,179.149 1394.81,180.149 1393,181.5C 1392.5,185.821 1392.33,190.154 1392.5,194.5C 1392.5,410.833 1392.5,627.167 1392.5,843.5C 1395.17,843.5 1397.83,843.5 1400.5,843.5C 1403.37,843.369 1405.03,844.703 1405.5,847.5C 1405.67,954.167 1405.5,1060.83 1405,1167.5C 1403.98,1169.69 1402.48,1171.35 1400.5,1172.5C 1397.83,1172.5 1395.17,1172.5 1392.5,1172.5C 1392.5,1498.17 1392.5,1823.83 1392.5,2149.5C 1393.29,2307.34 1393.45,2465.34 1393,2623.5C 1390.09,2689.15 1362.59,2741.65 1310.5,2781C 1280.85,2802 1247.85,2814.33 1211.5,2818C 872.5,2818.67 533.5,2818.67 194.5,2818C 122.972,2809.1 69.8057,2773.26 35,2710.5C 30.9828,2702.8 27.8161,2694.8 25.5,2686.5C 24.7387,2682.22 23.4053,2678.22 21.5,2674.5C 19.4068,2669.12 18.0735,2663.45 17.5,2657.5C 17.3755,2652.95 16.7089,2648.62 15.5,2644.5C 14.5184,2641.04 14.185,2637.37 14.5,2633.5C 14.7634,2615.81 14.43,2598.14 13.5,2580.5C 12.4543,2113.84 12.4543,1647.17 13.5,1180.5C 13.5,1115.17 13.5,1049.83 13.5,984.5C 7.79606,985.564 3.6294,983.564 1,978.5C 0.500004,913.501 0.333338,848.501 0.5,783.5C 1.16667,780.833 2.83333,779.167 5.5,778.5C 8.16667,778.5 10.8333,778.5 13.5,778.5C 13.5,743.5 13.5,708.5 13.5,673.5C 11.1667,673.5 8.83333,673.5 6.5,673.5C 4.19301,672.023 2.35968,670.023 1,667.5C 0.500018,635.835 0.333352,604.168 0.5,572.5C 1.16667,569.833 2.83333,568.167 5.5,567.5C 8.16667,567.5 10.8333,567.5 13.5,567.5C 13.5,525.833 13.5,484.167 13.5,442.5C 13.5,359.833 13.5,277.167 13.5,194.5C 13.6699,172.656 17.6699,151.656 25.5,131.5C 26.9313,130.22 27.5979,128.553 27.5,126.5C 34.0224,108.443 43.3558,92.1093 55.5,77.5C 57.5869,76.4154 58.9202,74.7488 59.5,72.5C 62.5725,70.4309 64.9059,67.7642 66.5,64.5C 66.8333,63.5 67.5,62.8333 68.5,62.5C 71.1667,60.5 73.5,58.1667 75.5,55.5C 79.4356,53.2343 82.7689,50.2343 85.5,46.5C 87.7488,45.9202 89.4154,44.5869 90.5,42.5C 92.7488,41.9202 94.4154,40.5869 95.5,38.5C 95.9731,37.0937 96.9731,36.427 98.5,36.5C 102.025,35.2411 105.025,33.2411 107.5,30.5C 108.659,28.7497 110.326,27.7497 112.5,27.5C 114.674,27.2503 116.341,26.2503 117.5,24.5C 128.363,17.7631 140.03,12.7631 152.5,9.5C 155.152,9.59047 157.485,8.92381 159.5,7.5C 162.152,7.59047 164.485,6.92381 166.5,5.5C 177.699,2.66252 189.032,0.662516 200.5,-0.5 Z M 206.5,67.5 C 283.545,67.0119 360.545,67.5119 437.5,69C 441,71.1667 443.833,74 446,77.5C 447.022,90.4909 448.022,103.491 449,116.5C 457.94,149.108 479.106,167.941 512.5,173C 641.859,173.988 771.192,173.654 900.5,172C 930.224,164.61 949.057,146.11 957,116.5C 957.978,103.491 958.978,90.4909 960,77.5C 962.751,72.4097 966.917,69.243 972.5,68C 1048.17,67.3333 1123.83,67.3333 1199.5,68C 1254.88,73.5845 1293.71,101.751 1316,152.5C 1320.07,163.16 1322.73,174.16 1324,185.5C 1324.67,1001.5 1324.67,1817.5 1324,2633.5C 1313.46,2694.37 1278.29,2732.54 1218.5,2748C 1214.18,2748.76 1209.85,2749.43 1205.5,2750C 870.5,2750.67 535.5,2750.67 200.5,2750C 149.162,2742.65 112.662,2715.48 91,2668.5C 86.5897,2657.19 83.5897,2645.53 82,2633.5C 81.3333,1817.5 81.3333,1001.5 82,185.5C 89.4649,135.051 116.298,99.2175 162.5,78C 176.774,72.2634 191.44,68.7634 206.5,67.5 Z"/></g>
<g><path style="opacity:0.224" fill="#c5c8c2" d="M 166.5,5.5 C 164.485,6.92381 162.152,7.59047 159.5,7.5C 161.515,6.07619 163.848,5.40953 166.5,5.5 Z"/></g>
<g><path style="opacity:0.325" fill="#babdb8" d="M 1239.5,5.5 C 1242.15,5.40953 1244.49,6.07619 1246.5,7.5C 1243.85,7.59047 1241.51,6.92381 1239.5,5.5 Z"/></g>
<g><path style="opacity:0.224" fill="#c1c3bd" d="M 159.5,7.5 C 157.485,8.92381 155.152,9.59047 152.5,9.5C 154.515,8.07619 156.848,7.40953 159.5,7.5 Z"/></g>
<g><path style="opacity:0.325" fill="#b6b8b2" d="M 1246.5,7.5 C 1249.15,7.40953 1251.49,8.07619 1253.5,9.5C 1250.85,9.59047 1248.51,8.92381 1246.5,7.5 Z"/></g>
<g><path style="opacity:1" fill="#050606" d="M 1325.5,2734.5 C 1318.83,2739.17 1313.17,2744.83 1308.5,2751.5C 1277.03,2778.61 1240.36,2793.11 1198.5,2795C 1033.33,2795.17 868.167,2795.33 703,2795.5C 532.821,2795.66 362.655,2795.16 192.5,2794C 157.167,2789.32 126.167,2775.49 99.5,2752.5C 93.4443,2745.44 86.7776,2739.11 79.5,2733.5C 53.9251,2703.31 39.7584,2668.31 37,2628.5C 36.3333,1815.5 36.3333,1002.5 37,189.5C 42.8044,125.425 73.3044,77.2581 128.5,45C 149.444,33.5742 171.777,26.5742 195.5,24C 532.833,23.3333 870.167,23.3333 1207.5,24C 1277.36,32.5512 1326.86,68.7179 1356,132.5C 1363.39,150.797 1367.73,169.797 1369,189.5C 1369.67,1002.5 1369.67,1815.5 1369,2628.5C 1366.28,2668.87 1351.78,2704.2 1325.5,2734.5 Z M 206.5,67.5 C 191.44,68.7634 176.774,72.2634 162.5,78C 116.298,99.2175 89.4649,135.051 82,185.5C 81.3333,1001.5 81.3333,1817.5 82,2633.5C 83.5897,2645.53 86.5897,2657.19 91,2668.5C 112.662,2715.48 149.162,2742.65 200.5,2750C 535.5,2750.67 870.5,2750.67 1205.5,2750C 1209.85,2749.43 1214.18,2748.76 1218.5,2748C 1278.29,2732.54 1313.46,2694.37 1324,2633.5C 1324.67,1817.5 1324.67,1001.5 1324,185.5C 1322.73,174.16 1320.07,163.16 1316,152.5C 1293.71,101.751 1254.88,73.5845 1199.5,68C 1123.83,67.3333 1048.17,67.3333 972.5,68C 966.917,69.243 962.751,72.4097 960,77.5C 958.978,90.4909 957.978,103.491 957,116.5C 949.057,146.11 930.224,164.61 900.5,172C 771.192,173.654 641.859,173.988 512.5,173C 479.106,167.941 457.94,149.108 449,116.5C 448.022,103.491 447.022,90.4909 446,77.5C 443.833,74 441,71.1667 437.5,69C 360.545,67.5119 283.545,67.0119 206.5,67.5 Z"/></g>
<g><path style="opacity:0.224" fill="#c6c9c4" d="M 117.5,24.5 C 116.341,26.2503 114.674,27.2503 112.5,27.5C 113.659,25.7497 115.326,24.7497 117.5,24.5 Z"/></g>
<g><path style="opacity:0.224" fill="#c4c6c0" d="M 107.5,30.5 C 105.025,33.2411 102.025,35.2411 98.5,36.5C 100.951,33.7232 103.951,31.7232 107.5,30.5 Z"/></g>
<g><path style="opacity:0.293" fill="#acb2aa" d="M 1298.5,30.5 C 1299.55,30.3505 1300.55,30.5172 1301.5,31C 1303.76,32.617 1305.76,34.4503 1307.5,36.5C 1303.98,35.2411 1300.98,33.2411 1298.5,30.5 Z"/></g>
<g><path style="opacity:0.224" fill="#c0c2bc" d="M 95.5,38.5 C 94.4154,40.5869 92.7488,41.9202 90.5,42.5C 91.5846,40.4131 93.2512,39.0798 95.5,38.5 Z"/></g>
<g><path style="opacity:1" fill="#aeaca5" d="M 90.5,42.5 C 89.4154,44.5869 87.7488,45.9202 85.5,46.5C 86.5846,44.4131 88.2512,43.0798 90.5,42.5 Z"/></g>
<g><path style="opacity:0.11" fill="#9ea49b" d="M 1320.5,46.5 C 1323.43,47.7573 1325.76,49.7573 1327.5,52.5C 1324.57,51.2427 1322.24,49.2427 1320.5,46.5 Z"/></g>
<g><path style="opacity:0.471" fill="#b1b1aa" d="M 85.5,46.5 C 82.7689,50.2343 79.4356,53.2343 75.5,55.5C 78.2311,51.7657 81.5644,48.7657 85.5,46.5 Z"/></g>
<g><path style="opacity:0.224" fill="#cbd0ca" d="M 75.5,55.5 C 73.5,58.1667 71.1667,60.5 68.5,62.5C 69.8333,59.1667 72.1667,56.8333 75.5,55.5 Z"/></g>
<g><path style="opacity:0.125" fill="#a2aba2" d="M 1329.5,54.5 C 1333.17,56.1667 1335.83,58.8333 1337.5,62.5C 1334.5,60.1667 1331.83,57.5 1329.5,54.5 Z"/></g>
<g><path style="opacity:0.471" fill="#bdbcb6" d="M 66.5,64.5 C 64.9059,67.7642 62.5725,70.4309 59.5,72.5C 61.0941,69.2358 63.4275,66.5691 66.5,64.5 Z"/></g>
<g><path style="opacity:0.471" fill="#c0c0ba" d="M 59.5,72.5 C 58.9202,74.7488 57.5869,76.4154 55.5,77.5C 56.0798,75.2512 57.4131,73.5846 59.5,72.5 Z"/></g>
<g><path style="opacity:1" fill="#101212" d="M 773.5,92.5 C 726.5,92.5 679.5,92.5 632.5,92.5C 634.724,89.376 637.724,87.2094 641.5,86C 681.833,85.3333 722.167,85.3333 762.5,86C 767.146,86.651 770.813,88.8177 773.5,92.5 Z"/></g>
<g><path style="opacity:1" fill="#171819" d="M 534.5,96.5 C 522.5,96.5 510.5,96.5 498.5,96.5C 501.729,89.3018 507.396,85.6351 515.5,85.5C 524.161,85.3252 530.494,88.9919 534.5,96.5 Z"/></g>
<g><path style="opacity:1" fill="#1e1f20" d="M 632.5,92.5 C 679.5,92.5 726.5,92.5 773.5,92.5C 775.653,94.7937 777.32,97.4604 778.5,100.5C 728.167,100.5 677.833,100.5 627.5,100.5C 628.68,97.4604 630.347,94.7937 632.5,92.5 Z"/></g>
<g><path style="opacity:1" fill="#2a2b2e" d="M 498.5,96.5 C 510.5,96.5 522.5,96.5 534.5,96.5C 539.205,108.888 535.871,118.388 524.5,125C 507.933,129.089 498.266,122.755 495.5,106C 495.427,102.39 496.427,99.223 498.5,96.5 Z"/></g>
<g><path style="opacity:1" fill="#2b2c2f" d="M 627.5,100.5 C 677.833,100.5 728.167,100.5 778.5,100.5C 780.561,112.624 775.894,121.124 764.5,126C 723.5,126.667 682.5,126.667 641.5,126C 630.106,121.124 625.439,112.624 627.5,100.5 Z"/></g>
<g><path style="opacity:0.267" fill="#c4c7c1" d="M 27.5,126.5 C 27.5979,128.553 26.9313,130.22 25.5,131.5C 25.4021,129.447 26.0687,127.78 27.5,126.5 Z"/></g>
<g><path style="opacity:0.008" fill="#c2c3c1" d="M 1413.5,146.5 C 1414.83,147.167 1414.83,147.167 1413.5,146.5 Z"/></g>
<g><path style="opacity:0.067" fill="#c2c3c1" d="M 1413.5,147.5 C 1412.83,148.167 1412.83,148.167 1413.5,147.5 Z"/></g>
<g><path style="opacity:0.008" fill="#c2c3c1" d="M 1418.5,151.5 C 1418.5,151.833 1418.5,152.167 1418.5,152.5C 1417.83,152.019 1417.83,151.685 1418.5,151.5 Z"/></g>
<g><path style="opacity:0.067" fill="#c2c3c1" d="M 1417.5,152.5 C 1416.83,153.167 1416.83,153.167 1417.5,152.5 Z"/></g>
<g><path style="opacity:0.067" fill="#9fa5a2" d="M 1401.5,193.5 C 1402.83,194.167 1402.83,194.167 1401.5,193.5 Z"/></g>
<g><path style="opacity:0.02" fill="#9fa5a2" d="M 1401.5,194.5 C 1400.83,195.167 1400.83,195.167 1401.5,194.5 Z"/></g>
<g><path style="opacity:0.067" fill="#9fa5a2" d="M 1409.5,209.5 C 1410.83,210.167 1410.83,210.167 1409.5,209.5 Z"/></g>
<g><path style="opacity:0.02" fill="#9fa5a2" d="M 1409.5,210.5 C 1408.83,211.167 1408.83,211.167 1409.5,210.5 Z"/></g>
<g><path style="opacity:0.067" fill="#9fa5a2" d="M 1413.5,219.5 C 1414.83,220.167 1414.83,220.167 1413.5,219.5 Z"/></g>
<g><path style="opacity:0.02" fill="#9fa5a2" d="M 1413.5,220.5 C 1412.83,221.167 1412.83,221.167 1413.5,220.5 Z"/></g>
<g><path style="opacity:0.067" fill="#9fa5a2" d="M 1418.5,230.5 C 1418.5,230.833 1418.5,231.167 1418.5,231.5C 1417.83,231.019 1417.83,230.685 1418.5,230.5 Z"/></g>
<g><path style="opacity:0.02" fill="#9fa5a2" d="M 1417.5,231.5 C 1416.83,232.167 1416.83,232.167 1417.5,231.5 Z"/></g>
<g><path style="opacity:0.284" fill="#637267" d="M 1392.5,194.5 C 1393.5,410.333 1393.83,626.333 1393.5,842.5C 1396.06,842.198 1398.39,842.532 1400.5,843.5C 1397.83,843.5 1395.17,843.5 1392.5,843.5C 1392.5,627.167 1392.5,410.833 1392.5,194.5 Z"/></g>
<g><path style="opacity:1" fill="#dadbd8" d="M 13.5,194.5 C 13.5,277.167 13.5,359.833 13.5,442.5C 13.1651,484.01 12.1651,525.343 10.5,566.5C 9.85821,442.32 10.8582,318.32 13.5,194.5 Z"/></g>
<g><path style="opacity:0.996" fill="#b0b8b0" d="M 13.5,442.5 C 13.5,484.167 13.5,525.833 13.5,567.5C 10.8333,567.5 8.16667,567.5 5.5,567.5C 6.91866,566.549 8.58533,566.216 10.5,566.5C 12.1651,525.343 13.1651,484.01 13.5,442.5 Z"/></g>
<g><path style="opacity:0.369" fill="#bbc0ba" d="M -0.5,572.5 C -0.166667,572.5 0.166667,572.5 0.5,572.5C 0.333352,604.168 0.500018,635.835 1,667.5C 2.35968,670.023 4.19301,672.023 6.5,673.5C 3.33147,672.998 0.998137,671.331 -0.5,668.5C -0.5,636.5 -0.5,604.5 -0.5,572.5 Z"/></g>
<g><path style="opacity:0.99" fill="#b0b8b0" d="M 6.5,673.5 C 8.83333,673.5 11.1667,673.5 13.5,673.5C 13.5,708.5 13.5,743.5 13.5,778.5C 10.8333,778.5 8.16667,778.5 5.5,778.5C 6.91866,777.549 8.58533,777.216 10.5,777.5C 11.8329,760.68 12.4995,743.513 12.5,726C 12.4995,708.487 11.8329,691.32 10.5,674.5C 8.90097,674.768 7.56764,674.434 6.5,673.5 Z"/></g>
<g><path style="opacity:1" fill="#e0e0de" d="M 10.5,674.5 C 11.8329,691.32 12.4995,708.487 12.5,726C 12.4995,743.513 11.8329,760.68 10.5,777.5C 10.5,743.167 10.5,708.833 10.5,674.5 Z"/></g>
<g><path style="opacity:0.243" fill="#657469" d="M 1405.5,847.5 C 1406.67,954.333 1406.83,1061.33 1406,1168.5C 1405.13,1171.21 1403.29,1172.55 1400.5,1172.5C 1402.48,1171.35 1403.98,1169.69 1405,1167.5C 1405.5,1060.83 1405.67,954.167 1405.5,847.5 Z"/></g>
<g><path style="opacity:0.07" fill="#b4bab3" d="M -0.5,783.5 C -0.166667,783.5 0.166667,783.5 0.5,783.5C 0.333338,848.501 0.500004,913.501 1,978.5C 3.6294,983.564 7.79606,985.564 13.5,984.5C 13.5,1049.83 13.5,1115.17 13.5,1180.5C 12.5009,1115.67 12.1675,1050.67 12.5,985.5C 6.699,986.43 2.36566,984.43 -0.5,979.5C -0.5,914.167 -0.5,848.833 -0.5,783.5 Z"/></g>
<g><path style="opacity:0.286" fill="#637267" d="M 1400.5,1172.5 C 1398.39,1173.47 1396.06,1173.8 1393.5,1173.5C 1393.83,1499 1393.5,1824.33 1392.5,2149.5C 1392.5,1823.83 1392.5,1498.17 1392.5,1172.5C 1395.17,1172.5 1397.83,1172.5 1400.5,1172.5 Z"/></g>
<g><path style="opacity:0.384" fill="#7c796d" d="M 13.5,2580.5 C 14.43,2598.14 14.7634,2615.81 14.5,2633.5C 13.7912,2616.99 13.1245,2600.32 12.5,2583.5C 12.5195,2582.27 12.8529,2581.27 13.5,2580.5 Z"/></g>
<g><path style="opacity:0.082" fill="#a1a39b" d="M 15.5,2644.5 C 16.7089,2648.62 17.3755,2652.95 17.5,2657.5C 15.9462,2653.43 15.2796,2649.1 15.5,2644.5 Z"/></g>
<g><path style="opacity:0.102" fill="#a1a69d" d="M 21.5,2674.5 C 23.4053,2678.22 24.7387,2682.22 25.5,2686.5C 23.1939,2682.92 21.8606,2678.92 21.5,2674.5 Z"/></g>
<g><path style="opacity:1" fill="#1d271e" d="M 79.5,2733.5 C 86.7776,2739.11 93.4443,2745.44 99.5,2752.5C 92.2224,2746.89 85.5557,2740.56 79.5,2733.5 Z"/></g>
<g><path style="opacity:1" fill="#1c261e" d="M 1325.5,2734.5 C 1320.17,2740.5 1314.5,2746.17 1308.5,2751.5C 1313.17,2744.83 1318.83,2739.17 1325.5,2734.5 Z"/></g>
<g><path style="opacity:0.067" fill="#c2c3c1" d="M 109.5,2832.5 C 110.833,2833.17 110.833,2833.17 109.5,2832.5 Z"/></g>
<g><path style="opacity:0.008" fill="#c2c3c1" d="M 109.5,2833.5 C 109.5,2833.83 109.5,2834.17 109.5,2834.5C 108.83,2834.02 108.83,2833.69 109.5,2833.5 Z"/></g>
</svg>
