<?xml version="1.0" standalone="no"?>
<!DOCTYPE svg PUBLIC "-//W3C//DTD SVG 20010904//EN"
 "http://www.w3.org/TR/2001/REC-SVG-20010904/DTD/svg10.dtd">
<svg version="1.0" xmlns="http://www.w3.org/2000/svg"
 width="1419.000000pt" height="2835.000000pt" viewBox="0 0 1419.000000 2835.000000"
 preserveAspectRatio="xMidYMid meet">

<g transform="translate(0.000000,2835.000000) scale(0.100000,-0.100000)"
fill="#000000" stroke="none">
<path d="M1975 28333 c-465 -41 -909 -247 -1241 -578 -307 -306 -495 -675
-570 -1125 -17 -98 -18 -242 -21 -2032 l-4 -1928 -40 0 c-30 0 -46 -6 -64 -26
l-25 -27 0 -474 0 -475 29 -29 c22 -21 39 -29 65 -29 l36 0 0 -525 0 -525 -39
0 c-28 0 -45 -7 -65 -26 l-26 -27 0 -974 0 -975 29 -29 c22 -21 39 -29 65 -29
l36 0 1 -977 c0 -538 1 -4132 2 -7988 0 -3855 4 -7140 8 -7300 7 -313 15 -381
59 -563 50 -204 140 -411 257 -592 136 -208 362 -451 531 -568 101 -70 265
-162 289 -162 10 0 57 -16 103 -36 109 -46 286 -97 420 -120 102 -18 274 -19
5225 -19 4951 0 5123 1 5225 19 425 75 803 275 1101 583 334 345 523 772 560
1269 8 105 10 832 8 2479 -2 1282 -3 4527 -1 7211 l2 4881 47 6 c32 3 53 12
65 27 17 21 18 100 18 1615 0 1515 -1 1594 -18 1615 -12 15 -33 24 -65 27
l-47 6 -1 3206 c0 1763 -2 3271 -5 3351 -2 85 -12 189 -24 250 -22 119 -67
279 -83 298 -5 7 -25 49 -43 93 -112 274 -340 576 -585 776 -275 224 -552 351
-939 430 -80 16 -390 17 -5160 18 -2791 1 -5093 0 -5115 -2z m2425 -685 c70
-48 74 -61 81 -251 7 -198 21 -262 82 -387 33 -69 58 -102 132 -176 76 -76
105 -98 185 -138 166 -81 3 -76 2155 -76 2152 0 1989 -5 2155 76 80 40 109 62
185 138 74 74 99 107 132 176 61 124 74 189 82 387 7 190 11 203 81 251 l33
22 1171 0 c1286 0 1258 1 1454 -61 198 -63 369 -167 523 -316 198 -192 321
-414 381 -685 l23 -103 0 -12250 c0 -11773 -1 -12253 -18 -12334 -121 -560
-529 -964 -1081 -1069 -85 -16 -409 -17 -5121 -17 -4712 0 -5036 1 -5121 17
-552 105 -960 509 -1081 1069 -17 81 -18 561 -18 12334 l0 12250 23 103 c60
271 183 493 381 685 154 150 325 253 525 316 188 60 153 59 1442 60 l1181 1
33 -22z"/>
</g>
</svg>
