<?xml version="1.0" standalone="no"?>
<!DOCTYPE svg PUBLIC "-//W3C//DTD SVG 20010904//EN"
 "http://www.w3.org/TR/2001/REC-SVG-20010904/DTD/svg10.dtd">
<svg version="1.0" xmlns="http://www.w3.org/2000/svg"
 width="1601.000000pt" height="1149.000000pt" viewBox="0 0 1601.000000 1149.000000"
 preserveAspectRatio="xMidYMid meet">

<g transform="translate(0.000000,1149.000000) scale(0.100000,-0.100000)"
fill="#000000" stroke="none">
<path d="M435 11090 c-16 -11 -38 -34 -47 -52 -17 -31 -18 -263 -18 -4478 0
-4418 0 -4445 20 -4478 11 -18 34 -41 52 -52 33 -20 57 -20 2886 -20 2607 0
2852 -1 2852 -16 0 -17 -192 -1025 -235 -1229 -13 -66 -32 -143 -41 -171 l-17
-52 -189 -33 c-103 -18 -188 -36 -188 -41 0 -5 -11 -6 -25 -2 -15 4 -25 2 -25
-5 0 -6 -13 -11 -28 -11 -50 0 -64 -19 -60 -80 l3 -55 2605 0 2605 0 3 58 c3
53 1 58 -22 67 -14 5 -48 12 -75 16 -28 4 -49 9 -47 13 3 4 -81 22 -184 40
l-189 34 -16 76 c-9 42 -21 85 -26 96 -7 16 -239 1262 -239 1287 0 5 1281 8
2848 8 2823 0 2847 0 2880 20 18 11 41 34 52 52 20 33 20 60 20 4476 0 4131
-1 4446 -17 4479 -9 20 -30 44 -47 54 -30 18 -211 19 -7546 19 -7466 0 -7515
0 -7545 -20z m14815 -4530 l0 -4220 -7265 0 -7265 0 0 4220 0 4220 7265 0
7265 0 0 -4220z"/>
</g>
</svg>
