<?xml version="1.0" encoding="UTF-8"?>
<!DOCTYPE svg PUBLIC "-//W3C//DTD SVG 1.1//EN" "http://www.w3.org/Graphics/SVG/1.1/DTD/svg11.dtd">
<svg xmlns="http://www.w3.org/2000/svg" version="1.1" width="1524px" height="1084px" style="shape-rendering:geometricPrecision; text-rendering:geometricPrecision; image-rendering:optimizeQuality; fill-rule:evenodd; clip-rule:evenodd" xmlns:xlink="http://www.w3.org/1999/xlink">
<g><path style="opacity:0.997" fill="#333333" d="M 10.5,-0.5 C 511.167,-0.5 1011.83,-0.5 1512.5,-0.5C 1517.04,1.3676 1520.71,4.3676 1523.5,8.5C 1523.5,306.833 1523.5,605.167 1523.5,903.5C 1521.69,907.479 1518.69,910.312 1514.5,912C 1324.16,911.834 1134.16,912.668 944.5,914.5C 943.292,913.766 941.959,913.433 940.5,913.5C 821.833,912.167 703.167,912.167 584.5,913.5C 584.167,913.5 583.833,913.5 583.5,913.5C 582.5,913.5 581.5,913.5 580.5,913.5C 390,912.667 199.334,912.167 8.5,912C 4.31481,910.312 1.31481,907.479 -0.5,903.5C -0.5,605.167 -0.5,306.833 -0.5,8.5C 2.29348,4.3676 5.96015,1.3676 10.5,-0.5 Z M 35.5,34.5 C 519.833,34.5 1004.17,34.5 1488.5,34.5C 1488.5,315.5 1488.5,596.5 1488.5,877.5C 1004.17,877.5 519.833,877.5 35.5,877.5C 35.5,596.5 35.5,315.5 35.5,34.5 Z"/></g>
<g><path style="opacity:1" fill="#272727" d="M 9.5,1.5 C 511.579,1.00091 1013.58,1.50091 1515.5,3C 1518.4,5.23979 1520.57,8.07313 1522,11.5C 1522.67,307.833 1522.67,604.167 1522,900.5C 1520.59,905.573 1517.43,909.073 1512.5,911C 1011.83,911.667 511.167,911.667 10.5,911C 5.57227,909.073 2.40561,905.573 1,900.5C 0.333333,604.5 0.333333,308.5 1,12.5C 2.55285,7.78792 5.38618,4.12126 9.5,1.5 Z M 35.5,34.5 C 35.5,315.5 35.5,596.5 35.5,877.5C 519.833,877.5 1004.17,877.5 1488.5,877.5C 1488.5,596.5 1488.5,315.5 1488.5,34.5C 1004.17,34.5 519.833,34.5 35.5,34.5 Z"/></g>
<g><path style="opacity:1" fill="#222222" d="M 11.5,2.5 C 512.555,2.00135 1013.55,2.50135 1514.5,4C 1517.87,6.36486 1520.04,9.53152 1521,13.5C 1521.67,308.833 1521.67,604.167 1521,899.5C 1519.59,904.573 1516.43,908.073 1511.5,910C 1011.5,910.667 511.5,910.667 11.5,910C 5.80795,907.794 2.64128,903.627 2,897.5C 1.33333,603.5 1.33333,309.5 2,15.5C 2.75781,9.28619 5.92448,4.95285 11.5,2.5 Z M 35.5,34.5 C 35.5,315.5 35.5,596.5 35.5,877.5C 519.833,877.5 1004.17,877.5 1488.5,877.5C 1488.5,596.5 1488.5,315.5 1488.5,34.5C 1004.17,34.5 519.833,34.5 35.5,34.5 Z"/></g>
<g><path style="opacity:1" fill="#1b1b1b" d="M 12.5,3.5 C 511.833,3.33333 1011.17,3.5 1510.5,4C 1515.43,5.92678 1518.59,9.42678 1520,14.5C 1520.67,309.167 1520.67,603.833 1520,898.5C 1518.59,903.573 1515.43,907.073 1510.5,909C 1010.42,909.999 510.421,909.666 10.5,908C 7.27158,906.437 5.10491,903.937 4,900.5C 3.33333,604.5 3.33333,308.5 4,12.5C 5.68784,8.31481 8.52117,5.31481 12.5,3.5 Z M 35.5,34.5 C 35.5,315.5 35.5,596.5 35.5,877.5C 519.833,877.5 1004.17,877.5 1488.5,877.5C 1488.5,596.5 1488.5,315.5 1488.5,34.5C 1004.17,34.5 519.833,34.5 35.5,34.5 Z"/></g>
<g><path style="opacity:1" fill="#151515" d="M 15.5,4.5 C 512.833,4.33333 1010.17,4.5 1507.5,5C 1512.6,6.43286 1516.1,9.59953 1518,14.5C 1519,310.246 1518.67,605.913 1517,901.5C 1514.74,904.431 1511.9,906.597 1508.5,908C 1010.83,908.667 513.167,908.667 15.5,908C 9.59007,906.421 6.09007,902.588 5,896.5C 4.33333,603.167 4.33333,309.833 5,16.5C 6.27966,10.3964 9.77966,6.39636 15.5,4.5 Z M 35.5,34.5 C 35.5,315.5 35.5,596.5 35.5,877.5C 519.833,877.5 1004.17,877.5 1488.5,877.5C 1488.5,596.5 1488.5,315.5 1488.5,34.5C 1004.17,34.5 519.833,34.5 35.5,34.5 Z"/></g>
<g><path style="opacity:1" fill="#0f0f0f" d="M 1509.5,905.5 C 1509.08,906.222 1508.42,906.722 1507.5,907C 1259,907.167 1010.5,907.333 762,907.5C 512.445,907.665 262.945,907.165 13.5,906C 10.2716,904.437 8.10491,901.937 7,898.5C 6.0016,603.087 6.33493,307.754 8,12.5C 10.3649,9.13094 13.5315,6.96428 17.5,6C 513.833,5.33333 1010.17,5.33333 1506.5,6C 1511.57,7.40561 1515.07,10.5723 1517,15.5C 1517.67,309.5 1517.67,603.5 1517,897.5C 1515.68,901.319 1513.18,903.985 1509.5,905.5 Z M 35.5,34.5 C 35.5,315.5 35.5,596.5 35.5,877.5C 519.833,877.5 1004.17,877.5 1488.5,877.5C 1488.5,596.5 1488.5,315.5 1488.5,34.5C 1004.17,34.5 519.833,34.5 35.5,34.5 Z"/></g>
<g><path style="opacity:1" fill="#090909" d="M 1509.5,905.5 C 1260.36,906.165 1011.19,906.499 762,906.5C 512.779,906.665 263.612,906.165 14.5,905C 11.2553,903.019 9.08861,900.186 8,896.5C 7.33333,603.167 7.33333,309.833 8,16.5C 9.92678,11.5723 13.4268,8.40561 18.5,7C 514.167,6.33333 1009.83,6.33333 1505.5,7C 1510.57,8.40561 1514.07,11.5723 1516,16.5C 1516.67,309.833 1516.67,603.167 1516,896.5C 1514.42,899.916 1512.25,902.916 1509.5,905.5 Z M 35.5,34.5 C 35.5,315.5 35.5,596.5 35.5,877.5C 519.833,877.5 1004.17,877.5 1488.5,877.5C 1488.5,596.5 1488.5,315.5 1488.5,34.5C 1004.17,34.5 519.833,34.5 35.5,34.5 Z"/></g>
<g><path style="opacity:0.986" fill="#020202" d="M 20.5,7.5 C 514.833,7.33333 1009.17,7.5 1503.5,8C 1509.55,9.05292 1513.39,12.5529 1515,18.5C 1515.67,310.833 1515.67,603.167 1515,895.5C 1513.14,900.026 1509.97,903.192 1505.5,905C 1008.78,905.999 512.112,905.665 15.5,904C 12.5665,901.736 10.3999,898.902 9,895.5C 8.33333,603.167 8.33333,310.833 9,18.5C 10.7889,12.5412 14.6223,8.87454 20.5,7.5 Z M 35.5,34.5 C 35.5,315.5 35.5,596.5 35.5,877.5C 519.833,877.5 1004.17,877.5 1488.5,877.5C 1488.5,596.5 1488.5,315.5 1488.5,34.5C 1004.17,34.5 519.833,34.5 35.5,34.5 Z"/></g>
<g><path style="opacity:1" fill="#2b2c2f" d="M 580.5,913.5 C 581.5,913.5 582.5,913.5 583.5,913.5C 583.5,914.833 583.5,916.167 583.5,917.5C 582.549,918.919 582.216,920.585 582.5,922.5C 581.532,924.607 581.198,926.941 581.5,929.5C 664.501,929.667 747.501,929.5 830.5,929C 868.18,929.162 905.513,928.329 942.5,926.5C 942.795,924.265 942.461,922.265 941.5,920.5C 941.784,918.585 941.451,916.919 940.5,915.5C 940.5,914.833 940.5,914.167 940.5,913.5C 941.959,913.433 943.292,913.766 944.5,914.5C 952.824,959.445 960.824,1004.44 968.5,1049.5C 830.329,1049.12 692.329,1049.79 554.5,1051.5C 554.167,1051.5 553.833,1051.5 553.5,1051.5C 562.301,1005.34 571.301,959.344 580.5,913.5 Z"/></g>
<g><path style="opacity:1" fill="#0a0a0b" d="M 940.5,913.5 C 940.5,914.167 940.5,914.833 940.5,915.5C 940.5,915.833 940.5,916.167 940.5,916.5C 821.833,916.5 703.167,916.5 584.5,916.5C 584.5,915.5 584.5,914.5 584.5,913.5C 703.167,912.167 821.833,912.167 940.5,913.5 Z"/></g>
<g><path style="opacity:1" fill="#0e0f10" d="M 583.5,913.5 C 583.833,913.5 584.167,913.5 584.5,913.5C 584.5,914.5 584.5,915.5 584.5,916.5C 703.167,916.5 821.833,916.5 940.5,916.5C 940.5,917.5 940.5,918.5 940.5,919.5C 821.162,920.165 702.162,919.498 583.5,917.5C 583.5,916.167 583.5,914.833 583.5,913.5 Z"/></g>
<g><path style="opacity:1" fill="#151517" d="M 940.5,915.5 C 941.451,916.919 941.784,918.585 941.5,920.5C 941.5,920.833 941.5,921.167 941.5,921.5C 821.836,922.409 702.17,922.743 582.5,922.5C 582.216,920.585 582.549,918.919 583.5,917.5C 702.162,919.498 821.162,920.165 940.5,919.5C 940.5,918.5 940.5,917.5 940.5,916.5C 940.5,916.167 940.5,915.833 940.5,915.5 Z"/></g>
<g><path style="opacity:1" fill="#1a1b1d" d="M 941.5,921.5 C 927.201,923.32 912.534,924.154 897.5,924C 792.501,924.5 687.501,924.667 582.5,924.5C 582.5,923.833 582.5,923.167 582.5,922.5C 702.17,922.743 821.836,922.409 941.5,921.5 Z"/></g>
<g><path style="opacity:1" fill="#1f2023" d="M 941.5,920.5 C 942.461,922.265 942.795,924.265 942.5,926.5C 822.498,926.376 702.498,926.709 582.5,927.5C 582.5,926.5 582.5,925.5 582.5,924.5C 687.501,924.667 792.501,924.5 897.5,924C 912.534,924.154 927.201,923.32 941.5,921.5C 941.5,921.167 941.5,920.833 941.5,920.5 Z"/></g>
<g><path style="opacity:1" fill="#252629" d="M 582.5,922.5 C 582.5,923.167 582.5,923.833 582.5,924.5C 582.5,925.5 582.5,926.5 582.5,927.5C 702.498,926.709 822.498,926.376 942.5,926.5C 905.513,928.329 868.18,929.162 830.5,929C 747.501,929.5 664.501,929.667 581.5,929.5C 581.198,926.941 581.532,924.607 582.5,922.5 Z"/></g>
<g><path style="opacity:1" fill="#212225" d="M 968.5,1049.5 C 969.338,1049.84 969.672,1050.51 969.5,1051.5C 831.236,1050.63 692.902,1050.63 554.5,1051.5C 692.329,1049.79 830.329,1049.12 968.5,1049.5 Z"/></g>
<g><path style="opacity:1" fill="#1a1b1d" d="M 969.5,1051.5 C 969.5,1051.83 969.5,1052.17 969.5,1052.5C 830.833,1052.5 692.167,1052.5 553.5,1052.5C 553.5,1052.17 553.5,1051.83 553.5,1051.5C 553.833,1051.5 554.167,1051.5 554.5,1051.5C 692.902,1050.63 831.236,1050.63 969.5,1051.5 Z"/></g>
<g><path style="opacity:1" fill="#121214" d="M 553.5,1052.5 C 692.167,1052.5 830.833,1052.5 969.5,1052.5C 969.5,1053.17 969.5,1053.83 969.5,1054.5C 830.833,1054.5 692.167,1054.5 553.5,1054.5C 553.5,1053.83 553.5,1053.17 553.5,1052.5 Z"/></g>
<g><path style="opacity:1" fill="#09090a" d="M 553.5,1054.5 C 692.167,1054.5 830.833,1054.5 969.5,1054.5C 970.404,1055.21 970.737,1056.21 970.5,1057.5C 831.167,1058.83 691.833,1058.83 552.5,1057.5C 552.263,1056.21 552.596,1055.21 553.5,1054.5 Z"/></g>
<g><path style="opacity:1" fill="#171718" d="M 552.5,1057.5 C 691.833,1058.83 831.167,1058.83 970.5,1057.5C 973.802,1058.29 977.135,1058.96 980.5,1059.5C 834.5,1060.83 688.5,1060.83 542.5,1059.5C 545.833,1058.83 549.167,1058.17 552.5,1057.5 Z"/></g>
<g><path style="opacity:1" fill="#1d1d1f" d="M 542.5,1059.5 C 688.5,1060.83 834.5,1060.83 980.5,1059.5C 984.193,1060.06 987.86,1060.73 991.5,1061.5C 838.167,1062.83 684.833,1062.83 531.5,1061.5C 535.14,1060.73 538.807,1060.06 542.5,1059.5 Z"/></g>
<g><path style="opacity:1" fill="#232426" d="M 531.5,1061.5 C 684.833,1062.83 838.167,1062.83 991.5,1061.5C 995.167,1062.17 998.833,1062.83 1002.5,1063.5C 841.833,1064.83 681.167,1064.83 520.5,1063.5C 524.112,1062.58 527.779,1061.91 531.5,1061.5 Z"/></g>
<g><path style="opacity:0.999" fill="#2b2c30" d="M 520.5,1063.5 C 681.167,1064.83 841.833,1064.83 1002.5,1063.5C 1009.24,1064.45 1015.91,1065.78 1022.5,1067.5C 1024.03,1069.71 1024.7,1072.21 1024.5,1075C 1024.44,1077.23 1024.1,1079.39 1023.5,1081.5C 933.334,1082.17 843.334,1082.83 753.5,1083.5C 690.833,1083.5 628.167,1083.5 565.5,1083.5C 543.67,1082.67 521.67,1082.17 499.5,1082C 498.866,1079.93 498.532,1077.76 498.5,1075.5C 498.32,1072.42 498.986,1069.59 500.5,1067C 507.159,1065.72 513.826,1064.56 520.5,1063.5 Z"/></g>
</svg>
